<?xml version="1.0" encoding="utf-8"?>
<!-- Generator: Adobe Illustrator 24.3.0, SVG Export Plug-In . SVG Version: 6.00 Build 0)  -->
<svg version="1.1" id="Layer_1" xmlns="http://www.w3.org/2000/svg" xmlns:xlink="http://www.w3.org/1999/xlink" x="0px" y="0px"
	 viewBox="0 0 1851 274.5" style="enable-background:new 0 0 1851 274.5;" xml:space="preserve">
<style type="text/css">
	.st0{fill:#1C1C1E;}
	.st1{fill:#EC564D;}
	.st2{opacity:0.2;fill:#1C1C1E;enable-background:new    ;}
</style>
<path class="st0" d="M432.6,9.7v217.6c0,29.3,16.6,46.6,45.9,46.6c10,0,17.9-1.7,24.5-4.5v-34.1c-2.4,1-5.5,1.7-10.3,1.7
	c-11.4,0-17.6-5.5-17.6-20.7V9.7H432.6z"/>
<path class="st0" d="M645.7,79h-46.2L665,271.1h47.9L775.3,79h-43.1l-29.3,100.4c-6.2,22.8-9.7,36.6-12.4,51.4h-1.4
	c-3.1-15.2-6.6-28.6-13.1-51.4L645.7,79z"/>
<path class="st0" d="M922.4,223.8c-7.6,7.2-22.8,16.2-43.1,16.2c-34.8,0-50.7-17.2-52.1-53.8h117.6c1.7-13.8,2.1-24.1,2.1-33.8
	c0-46.6-26.9-76.9-74.5-76.9c-50.7,0-86.9,33.8-86.9,99c0,67.9,30.3,100,89,100c33.1,0,52.4-9,66.6-20L922.4,223.8z M870.6,108.6
	c24.5,0,35.9,14.1,35.9,40.3v7.6h-78.6C829.3,125.2,846.8,108.6,870.6,108.6z"/>
<path class="st0" d="M1066.7,218.6c0,11.7-8.6,21.4-28.6,21.4c-22.8,0-41.4-12.1-51-22.8l-25.5,30c11,11.4,35.9,27.2,74.5,27.2
	c52.1,0,73.1-32.4,73.1-58.3c0-64.5-93.1-51.7-93.1-85.9c0-11.4,9-20,26.2-20c16.6,0,30.4,8.6,38.3,17.2l27.2-27.6
	c-12.4-13.8-34.1-24.5-64.5-24.5c-43.8,0-69.3,27.2-69.3,57.2C973.9,197.3,1066.7,184.8,1066.7,218.6z"/>
<path class="st0" d="M1200.6,272.8c28.6,0,42.8-6.2,49.7-10.7l-11.4-32.4c-6.6,4.8-16.2,7.9-27.2,7.9c-14.1,0-23.1-7.6-23.1-24.1
	V111.7h50V79h-50V29.7h-27.6l-14.1,46.9l-26.2,8.6v26.6h26.2v101.7C1146.8,256.2,1168.2,272.8,1200.6,272.8z"/>
<path class="st0" d="M1303.6,173.8c0-43.5,11.4-64.1,39.7-64.1c30.4,0,42.4,22.4,42.4,66.6c0,43.1-10,64.1-40.3,64.1
	C1315.3,240.4,1303.6,217.6,1303.6,173.8z M1343.6,274.5c61.4,0,85.5-41,85.5-100.4s-20.3-98.6-83.8-98.6
	c-61.7,0-85.5,41-85.5,100.4C1259.8,234.8,1280.5,274.5,1343.6,274.5z"/>
<path class="st0" d="M1571.9,76.9c-4.1-1-10.7-1.7-17.2-1.7c-24.1,0-41.4,12.4-49.3,29.3h-1.4l-9-25.5h-32.8v192.1h42.1V136.2
	c10.3-12.4,28.6-19,45.9-19c6.9,0,14.8,0.7,21.7,2.1V76.9z"/>
<path class="st0" d="M1735.5,102.4h-1.4c-6.9-15.2-20-27.6-49-27.6c-23.1,0-41,10.3-50.3,23.1h-1.4l-7.6-19h-34.1v192.1h42.4V137.9
	c4.5-14.1,17.9-26.9,34.8-26.9c20.3,0,31,13.1,31,38.6v121.4h42.8V136.6c5.2-14.1,19.3-25.5,36.2-25.5c17.2,0,29.7,10.3,29.7,35.2
	v124.8h42.4V138.6c0-43.1-21.4-63.8-59-63.8C1763.8,74.8,1744.5,87.9,1735.5,102.4z"/>
<path class="st0" d="M533.2,271.1h42.4V79h-42.4V271.1z"/>
<path class="st1" d="M527.7,26.9c0,14.1,11.4,25.2,25.5,25.2c15.5,0,26.6-11,26.6-25.2c0-15.5-11-26.9-26.6-26.9
	C539.1,0,527.7,11.4,527.7,26.9z"/>
<path class="st2" d="M24.1,31.1h289.1c13.3,0,24.1,10.8,24.1,24.1l0,0c0,13.3-10.8,24.1-24.1,24.1H24.1C10.8,79.3,0,68.5,0,55.2l0,0
	C0,41.9,10.8,31.1,24.1,31.1z"/>
<path class="st0" d="M24.1,31.1h224.9c13.3,0,24.1,10.8,24.1,24.1l0,0c0,13.3-10.8,24.1-24.1,24.1H24.1C10.8,79.3,0,68.5,0,55.2l0,0
	C0,41.9,10.8,31.1,24.1,31.1z"/>
<path class="st2" d="M72.3,127.5H265c13.3,0,24.1,10.8,24.1,24.1l0,0c0,13.3-10.8,24.1-24.1,24.1H72.3c-13.3,0-24.1-10.8-24.1-24.1
	l0,0C48.2,138.3,59,127.5,72.3,127.5z"/>
<path class="st0" d="M72.3,127.5h128.5c13.3,0,24.1,10.8,24.1,24.1l0,0c0,13.3-10.8,24.1-24.1,24.1H72.3
	c-13.3,0-24.1-10.8-24.1-24.1l0,0C48.2,138.3,59,127.5,72.3,127.5z"/>
<path class="st2" d="M120.5,223.9h96.4c13.3,0,24.1,10.8,24.1,24.1v0c0,13.3-10.8,24.1-24.1,24.1h-96.4c-13.3,0-24.1-10.8-24.1-24.1
	v0C96.4,234.6,107.2,223.9,120.5,223.9z"/>
<path class="st0" d="M120.5,223.9h32.1c13.3,0,24.1,10.8,24.1,24.1v0c0,13.3-10.8,24.1-24.1,24.1h-32.1c-13.3,0-24.1-10.8-24.1-24.1
	v0C96.4,234.6,107.2,223.9,120.5,223.9z"/>
</svg>
